<?xml version="1.0" encoding="UTF-8" standalone="no"?>
<!DOCTYPE svg PUBLIC "-//W3C//DTD SVG 1.1//EN"
 "http://www.w3.org/Graphics/SVG/1.1/DTD/svg11.dtd">
<!-- Generated by graphviz version 2.40.1 (20161225.0304)
 -->
<!-- Title: dependencies Pages: 1 -->
<svg width="504pt" height="211pt"
 viewBox="0.00 0.00 504.00 211.00" xmlns="http://www.w3.org/2000/svg" xmlns:xlink="http://www.w3.org/1999/xlink">
<g id="graph0" class="graph" transform="scale(1 1) rotate(0) translate(4 207)">
<title>dependencies</title>
<polygon fill="#ffffff" stroke="transparent" points="-4,4 -4,-207 500,-207 500,4 -4,4"/>
<text text-anchor="start" x="227.0091" y="-42.4" font-family="sans-serif" font-weight="bold" font-size="14.00" fill="#000000">Legend</text>
<polygon fill="#ffffb3" stroke="transparent" points="14,-10 14,-30 34,-30 34,-10 14,-10"/>
<text text-anchor="start" x="37.629" y="-15.4" font-family="sans-serif" font-size="14.00" fill="#000000"> &#160;Declarations</text>
<polygon fill="#8dd3c7" stroke="transparent" points="127,-10 127,-30 147,-30 147,-10 127,-10"/>
<text text-anchor="start" x="150.7251" y="-15.4" font-family="sans-serif" font-size="14.00" fill="#000000"> &#160;Module</text>
<polygon fill="#80b1d3" stroke="transparent" points="213,-10 213,-30 233,-30 233,-10 213,-10"/>
<text text-anchor="start" x="236.7812" y="-15.4" font-family="sans-serif" font-size="14.00" fill="#000000"> &#160;Bootstrap</text>
<polygon fill="#fdb462" stroke="transparent" points="310,-10 310,-30 330,-30 330,-10 310,-10"/>
<text text-anchor="start" x="333.6732" y="-15.4" font-family="sans-serif" font-size="14.00" fill="#000000"> &#160;Providers</text>
<polygon fill="#fb8072" stroke="transparent" points="406,-10 406,-30 426,-30 426,-10 406,-10"/>
<text text-anchor="start" x="429.7258" y="-15.4" font-family="sans-serif" font-size="14.00" fill="#000000"> &#160;Exports</text>
<g id="clust1" class="cluster">
<title>cluster_ArticleModule</title>
<polygon fill="none" stroke="#000000" stroke-dasharray="1,5" points="125,-70 125,-195 371,-195 371,-70 125,-70"/>
</g>
<g id="clust3" class="cluster">
<title>cluster_ArticleModule_imports</title>
<polygon fill="none" stroke="#000000" points="237,-78 237,-130 363,-130 363,-78 237,-78"/>
</g>
<g id="clust6" class="cluster">
<title>cluster_ArticleModule_providers</title>
<polygon fill="none" stroke="#000000" points="133,-78 133,-130 229,-130 229,-78 133,-78"/>
</g>
<!-- DatabaseModule -->
<g id="node1" class="node">
<title>DatabaseModule</title>
<polygon fill="#8dd3c7" stroke="#000000" points="355.3501,-122 352.3501,-126 331.3501,-126 328.3501,-122 244.6499,-122 244.6499,-86 355.3501,-86 355.3501,-122"/>
<text text-anchor="middle" x="300" y="-99.8" font-family="Times,serif" font-size="14.00" fill="#000000">DatabaseModule</text>
</g>
<!-- ArticleModule -->
<g id="node2" class="node">
<title>ArticleModule</title>
<polygon fill="#8dd3c7" stroke="#000000" points="290.4189,-187 287.4189,-191 266.4189,-191 263.4189,-187 191.5811,-187 191.5811,-151 290.4189,-151 290.4189,-187"/>
<text text-anchor="middle" x="241" y="-164.8" font-family="Times,serif" font-size="14.00" fill="#000000">ArticleModule</text>
</g>
<!-- DatabaseModule&#45;&gt;ArticleModule -->
<g id="edge1" class="edge">
<title>DatabaseModule&#45;&gt;ArticleModule</title>
<path fill="none" stroke="#000000" d="M267.392,-122.1061C267.392,-122.1061 267.392,-140.991 267.392,-140.991"/>
<polygon fill="#000000" stroke="#000000" points="263.8921,-140.9909 267.392,-150.991 270.8921,-140.991 263.8921,-140.9909"/>
</g>
<!-- Service -->
<g id="node3" class="node">
<title>Service</title>
<ellipse fill="#fdb462" stroke="#000000" cx="181" cy="-104" rx="39.9838" ry="18"/>
<text text-anchor="middle" x="181" y="-99.8" font-family="Times,serif" font-size="14.00" fill="#000000">Service</text>
</g>
<!-- Service&#45;&gt;ArticleModule -->
<g id="edge2" class="edge">
<title>Service&#45;&gt;ArticleModule</title>
<path fill="none" stroke="#000000" d="M206.3914,-118.104C206.3914,-118.104 206.3914,-140.7209 206.3914,-140.7209"/>
<polygon fill="#000000" stroke="#000000" points="202.8915,-140.7209 206.3914,-150.7209 209.8915,-140.7209 202.8915,-140.7209"/>
</g>
</g>
</svg>
