<?xml version="1.0" encoding="UTF-8" standalone="no"?>
<!DOCTYPE svg PUBLIC "-//W3C//DTD SVG 1.1//EN"
 "http://www.w3.org/Graphics/SVG/1.1/DTD/svg11.dtd">
<!-- Generated by graphviz version 2.40.1 (20161225.0304)
 -->
<!-- Title: dependencies Pages: 1 -->
<svg width="504pt" height="211pt"
 viewBox="0.00 0.00 504.00 211.00" xmlns="http://www.w3.org/2000/svg" xmlns:xlink="http://www.w3.org/1999/xlink">
<g id="graph0" class="graph" transform="scale(1 1) rotate(0) translate(4 207)">
<title>dependencies</title>
<polygon fill="#ffffff" stroke="transparent" points="-4,4 -4,-207 500,-207 500,4 -4,4"/>
<text text-anchor="start" x="227.0091" y="-42.4" font-family="sans-serif" font-weight="bold" font-size="14.00" fill="#000000">Legend</text>
<polygon fill="#ffffb3" stroke="transparent" points="14,-10 14,-30 34,-30 34,-10 14,-10"/>
<text text-anchor="start" x="37.629" y="-15.4" font-family="sans-serif" font-size="14.00" fill="#000000"> &#160;Declarations</text>
<polygon fill="#8dd3c7" stroke="transparent" points="127,-10 127,-30 147,-30 147,-10 127,-10"/>
<text text-anchor="start" x="150.7251" y="-15.4" font-family="sans-serif" font-size="14.00" fill="#000000"> &#160;Module</text>
<polygon fill="#80b1d3" stroke="transparent" points="213,-10 213,-30 233,-30 233,-10 213,-10"/>
<text text-anchor="start" x="236.7812" y="-15.4" font-family="sans-serif" font-size="14.00" fill="#000000"> &#160;Bootstrap</text>
<polygon fill="#fdb462" stroke="transparent" points="310,-10 310,-30 330,-30 330,-10 310,-10"/>
<text text-anchor="start" x="333.6732" y="-15.4" font-family="sans-serif" font-size="14.00" fill="#000000"> &#160;Providers</text>
<polygon fill="#fb8072" stroke="transparent" points="406,-10 406,-30 426,-30 426,-10 406,-10"/>
<text text-anchor="start" x="429.7258" y="-15.4" font-family="sans-serif" font-size="14.00" fill="#000000"> &#160;Exports</text>
<g id="clust1" class="cluster">
<title>cluster_AppModule</title>
<polygon fill="none" stroke="#000000" stroke-dasharray="1,5" points="71.5,-70 71.5,-195 424.5,-195 424.5,-70 71.5,-70"/>
</g>
<g id="clust3" class="cluster">
<title>cluster_AppModule_imports</title>
<polygon fill="none" stroke="#000000" points="79.5,-78 79.5,-130 416.5,-130 416.5,-78 79.5,-78"/>
</g>
<!-- ArticleModule -->
<g id="node1" class="node">
<title>ArticleModule</title>
<polygon fill="#8dd3c7" stroke="#000000" points="408.9189,-122 405.9189,-126 384.9189,-126 381.9189,-122 310.0811,-122 310.0811,-86 408.9189,-86 408.9189,-122"/>
<text text-anchor="middle" x="359.5" y="-99.8" font-family="Times,serif" font-size="14.00" fill="#000000">ArticleModule</text>
</g>
<!-- AppModule -->
<g id="node4" class="node">
<title>AppModule</title>
<polygon fill="#8dd3c7" stroke="#000000" points="292.1571,-187 289.1571,-191 268.1571,-191 265.1571,-187 208.8429,-187 208.8429,-151 292.1571,-151 292.1571,-187"/>
<text text-anchor="middle" x="250.5" y="-164.8" font-family="Times,serif" font-size="14.00" fill="#000000">AppModule</text>
</g>
<!-- ArticleModule&#45;&gt;AppModule -->
<g id="edge1" class="edge">
<title>ArticleModule&#45;&gt;AppModule</title>
<path fill="none" stroke="#000000" d="M359.5,-122.1061C359.5,-141.3391 359.5,-169 359.5,-169 359.5,-169 302.3305,-169 302.3305,-169"/>
<polygon fill="#000000" stroke="#000000" points="302.3305,-165.5001 292.3305,-169 302.3305,-172.5001 302.3305,-165.5001"/>
</g>
<!-- PostModule -->
<g id="node2" class="node">
<title>PostModule</title>
<polygon fill="#8dd3c7" stroke="#000000" points="292.1683,-122 289.1683,-126 268.1683,-126 265.1683,-122 208.8317,-122 208.8317,-86 292.1683,-86 292.1683,-122"/>
<text text-anchor="middle" x="250.5" y="-99.8" font-family="Times,serif" font-size="14.00" fill="#000000">PostModule</text>
</g>
<!-- PostModule&#45;&gt;AppModule -->
<g id="edge2" class="edge">
<title>PostModule&#45;&gt;AppModule</title>
<path fill="none" stroke="#000000" d="M250.5,-122.1061C250.5,-122.1061 250.5,-140.991 250.5,-140.991"/>
<polygon fill="#000000" stroke="#000000" points="247.0001,-140.9909 250.5,-150.991 254.0001,-140.991 247.0001,-140.9909"/>
</g>
<!-- StockModule -->
<g id="node3" class="node">
<title>StockModule</title>
<polygon fill="#8dd3c7" stroke="#000000" points="191.0982,-122 188.0982,-126 167.0982,-126 164.0982,-122 87.9018,-122 87.9018,-86 191.0982,-86 191.0982,-122"/>
<text text-anchor="middle" x="139.5" y="-99.8" font-family="Times,serif" font-size="14.00" fill="#000000">StockModule</text>
</g>
<!-- StockModule&#45;&gt;AppModule -->
<g id="edge3" class="edge">
<title>StockModule&#45;&gt;AppModule</title>
<path fill="none" stroke="#000000" d="M139.5,-122.1061C139.5,-141.3391 139.5,-169 139.5,-169 139.5,-169 198.5357,-169 198.5357,-169"/>
<polygon fill="#000000" stroke="#000000" points="198.5357,-172.5001 208.5357,-169 198.5356,-165.5001 198.5357,-172.5001"/>
</g>
</g>
</svg>
