<?xml version="1.0" encoding="UTF-8" standalone="no"?>
<!DOCTYPE svg PUBLIC "-//W3C//DTD SVG 1.1//EN"
 "http://www.w3.org/Graphics/SVG/1.1/DTD/svg11.dtd">
<!-- Generated by graphviz version 2.40.1 (20161225.0304)
 -->
<!-- Title: dependencies Pages: 1 -->
<svg width="504pt" height="287pt"
 viewBox="0.00 0.00 504.00 287.00" xmlns="http://www.w3.org/2000/svg" xmlns:xlink="http://www.w3.org/1999/xlink">
<g id="graph0" class="graph" transform="scale(1 1) rotate(0) translate(4 283)">
<title>dependencies</title>
<polygon fill="#ffffff" stroke="transparent" points="-4,4 -4,-283 500,-283 500,4 -4,4"/>
<text text-anchor="start" x="227.0091" y="-42.4" font-family="sans-serif" font-weight="bold" font-size="14.00" fill="#000000">Legend</text>
<polygon fill="#ffffb3" stroke="transparent" points="14,-10 14,-30 34,-30 34,-10 14,-10"/>
<text text-anchor="start" x="37.629" y="-15.4" font-family="sans-serif" font-size="14.00" fill="#000000"> &#160;Declarations</text>
<polygon fill="#8dd3c7" stroke="transparent" points="127,-10 127,-30 147,-30 147,-10 127,-10"/>
<text text-anchor="start" x="150.7251" y="-15.4" font-family="sans-serif" font-size="14.00" fill="#000000"> &#160;Module</text>
<polygon fill="#80b1d3" stroke="transparent" points="213,-10 213,-30 233,-30 233,-10 213,-10"/>
<text text-anchor="start" x="236.7812" y="-15.4" font-family="sans-serif" font-size="14.00" fill="#000000"> &#160;Bootstrap</text>
<polygon fill="#fdb462" stroke="transparent" points="310,-10 310,-30 330,-30 330,-10 310,-10"/>
<text text-anchor="start" x="333.6732" y="-15.4" font-family="sans-serif" font-size="14.00" fill="#000000"> &#160;Providers</text>
<polygon fill="#fb8072" stroke="transparent" points="406,-10 406,-30 426,-30 426,-10 406,-10"/>
<text text-anchor="start" x="429.7258" y="-15.4" font-family="sans-serif" font-size="14.00" fill="#000000"> &#160;Exports</text>
<g id="clust1" class="cluster">
<title>cluster_AppModule</title>
<polygon fill="none" stroke="#000000" stroke-dasharray="1,5" points="100,-146 100,-271 332,-271 332,-146 100,-146"/>
</g>
<g id="clust3" class="cluster">
<title>cluster_AppModule_imports</title>
<polygon fill="none" stroke="#000000" points="108,-154 108,-206 324,-206 324,-154 108,-154"/>
</g>
<g id="clust7" class="cluster">
<title>cluster_ArticleModule</title>
<polygon fill="none" stroke="#000000" stroke-dasharray="1,5" points="45,-70 45,-138 291,-138 291,-70 45,-70"/>
</g>
<g id="clust9" class="cluster">
<title>cluster_ArticleModule_imports</title>
<polygon fill="none" stroke="#000000" points="157,-78 157,-130 283,-130 283,-78 157,-78"/>
</g>
<g id="clust12" class="cluster">
<title>cluster_ArticleModule_providers</title>
<polygon fill="none" stroke="#000000" points="53,-78 53,-130 149,-130 149,-78 53,-78"/>
</g>
<g id="clust19" class="cluster">
<title>cluster_PostModule</title>
<polygon fill="none" stroke="#000000" stroke-dasharray="1,5" points="299,-70 299,-138 451,-138 451,-70 299,-70"/>
</g>
<g id="clust24" class="cluster">
<title>cluster_PostModule_providers</title>
<polygon fill="none" stroke="#000000" points="307,-78 307,-130 443,-130 443,-78 307,-78"/>
</g>
<!-- ArticleModule -->
<g id="node1" class="node">
<title>ArticleModule</title>
<polygon fill="#8dd3c7" stroke="#000000" points="214.4189,-198 211.4189,-202 190.4189,-202 187.4189,-198 115.5811,-198 115.5811,-162 214.4189,-162 214.4189,-198"/>
<text text-anchor="middle" x="165" y="-175.8" font-family="Times,serif" font-size="14.00" fill="#000000">ArticleModule</text>
</g>
<!-- AppModule -->
<g id="node3" class="node">
<title>AppModule</title>
<polygon fill="#8dd3c7" stroke="#000000" points="260.6571,-263 257.6571,-267 236.6571,-267 233.6571,-263 177.3429,-263 177.3429,-227 260.6571,-227 260.6571,-263"/>
<text text-anchor="middle" x="219" y="-240.8" font-family="Times,serif" font-size="14.00" fill="#000000">AppModule</text>
</g>
<!-- ArticleModule&#45;&gt;AppModule -->
<g id="edge1" class="edge">
<title>ArticleModule&#45;&gt;AppModule</title>
<path fill="none" stroke="#000000" d="M195.6904,-198.1061C195.6904,-198.1061 195.6904,-216.991 195.6904,-216.991"/>
<polygon fill="#000000" stroke="#000000" points="192.1905,-216.9909 195.6904,-226.991 199.1905,-216.991 192.1905,-216.9909"/>
</g>
<!-- PostModule -->
<g id="node2" class="node">
<title>PostModule</title>
<polygon fill="#8dd3c7" stroke="#000000" points="315.6683,-198 312.6683,-202 291.6683,-202 288.6683,-198 232.3317,-198 232.3317,-162 315.6683,-162 315.6683,-198"/>
<text text-anchor="middle" x="274" y="-175.8" font-family="Times,serif" font-size="14.00" fill="#000000">PostModule</text>
</g>
<!-- PostModule&#45;&gt;AppModule -->
<g id="edge2" class="edge">
<title>PostModule&#45;&gt;AppModule</title>
<path fill="none" stroke="#000000" d="M246.4972,-198.1061C246.4972,-198.1061 246.4972,-216.991 246.4972,-216.991"/>
<polygon fill="#000000" stroke="#000000" points="242.9973,-216.9909 246.4972,-226.991 249.9973,-216.991 242.9973,-216.9909"/>
</g>
<!-- DatabaseModule -->
<g id="node4" class="node">
<title>DatabaseModule</title>
<polygon fill="#8dd3c7" stroke="#000000" points="275.3501,-122 272.3501,-126 251.3501,-126 248.3501,-122 164.6499,-122 164.6499,-86 275.3501,-86 275.3501,-122"/>
<text text-anchor="middle" x="220" y="-99.8" font-family="Times,serif" font-size="14.00" fill="#000000">DatabaseModule</text>
</g>
<!-- DatabaseModule&#45;&gt;ArticleModule -->
<g id="edge3" class="edge">
<title>DatabaseModule&#45;&gt;ArticleModule</title>
<path fill="none" stroke="#000000" d="M189.392,-122.0109C189.392,-122.0109 189.392,-151.855 189.392,-151.855"/>
<polygon fill="#000000" stroke="#000000" points="185.8921,-151.8549 189.392,-161.855 192.8921,-151.855 185.8921,-151.8549"/>
</g>
<!-- DatabaseModule&#45;&gt;PostModule -->
<g id="edge5" class="edge">
<title>DatabaseModule&#45;&gt;PostModule</title>
<path fill="none" stroke="#000000" d="M253.7956,-122.0109C253.7956,-122.0109 253.7956,-151.855 253.7956,-151.855"/>
<polygon fill="#000000" stroke="#000000" points="250.2957,-151.8549 253.7956,-161.855 257.2957,-151.855 250.2957,-151.8549"/>
</g>
<!-- Service -->
<g id="node5" class="node">
<title>Service</title>
<ellipse fill="#fdb462" stroke="#000000" cx="101" cy="-104" rx="39.9838" ry="18"/>
<text text-anchor="middle" x="101" y="-99.8" font-family="Times,serif" font-size="14.00" fill="#000000">Service</text>
</g>
<!-- Service&#45;&gt;ArticleModule -->
<g id="edge4" class="edge">
<title>Service&#45;&gt;ArticleModule</title>
<path fill="none" stroke="#000000" d="M128.3914,-117.2382C128.3914,-117.2382 128.3914,-151.7901 128.3914,-151.7901"/>
<polygon fill="#000000" stroke="#000000" points="124.8915,-151.79 128.3914,-161.7901 131.8915,-151.7901 124.8915,-151.79"/>
</g>
<!-- PostsService -->
<g id="node6" class="node">
<title>PostsService</title>
<ellipse fill="#fdb462" stroke="#000000" cx="375" cy="-104" rx="60.2672" ry="18"/>
<text text-anchor="middle" x="375" y="-99.8" font-family="Times,serif" font-size="14.00" fill="#000000">PostsService</text>
</g>
<!-- PostsService&#45;&gt;PostModule -->
<g id="edge6" class="edge">
<title>PostsService&#45;&gt;PostModule</title>
<path fill="none" stroke="#000000" d="M314.3815,-104C303.2266,-104 295.0208,-104 295.0208,-104 295.0208,-104 295.0208,-151.9891 295.0208,-151.9891"/>
<polygon fill="#000000" stroke="#000000" points="291.5209,-151.989 295.0208,-161.9891 298.5209,-151.9891 291.5209,-151.989"/>
</g>
</g>
</svg>
